<svg xmlns="http://www.w3.org/2000/svg" viewBox="0 0 370 100.333">
  <defs>
    <style>
      .cls-1 {
        fill: #5ce66c;
      }

      .cls-2 {
        fill: #4d4f5c;
        font-size: 60px;
        font-family: CocogooseClassicTrial-Medium, Cocogoose Classic Trial;
        font-weight: 500;
      }
    </style>
  </defs>
  <g id="Group_2" data-name="Group 2" transform="translate(-1212 -490)">
    <path id="icon" class="cls-1" d="M97.106,32.045a163.31,163.31,0,0,0,3.227-29.106A2.94,2.94,0,0,0,97.394,0,163.31,163.31,0,0,0,68.288,3.227,141.95,141.95,0,0,0,52.18,7.4c-.034.01-.067.021-.1.033q-4.894,1.6-9.337,3.5a89.526,89.526,0,0,0-10.126,5.092,2.968,2.968,0,0,0-.276.166,66.289,66.289,0,0,0-13.1,10.026,38.806,38.806,0,0,0-2,52.72L.861,95.315a2.939,2.939,0,1,0,4.157,4.157L21.393,83.1a38.809,38.809,0,0,0,52.72-2A66.293,66.293,0,0,0,84.139,67.991a2.965,2.965,0,0,0,.166-.276A89.512,89.512,0,0,0,89.4,57.59q1.9-4.439,3.5-9.347c.009-.028.018-.056.027-.083A142.07,142.07,0,0,0,97.106,32.045ZM69.327,9.014a167.752,167.752,0,0,1,25.042-3.05,167.73,167.73,0,0,1-3.05,25.042,137.5,137.5,0,0,1-3.374,13.373H60.11l17.1-17.1a2.94,2.94,0,0,0-4.157-4.157l-17.1,17.1V12.389A137.5,137.5,0,0,1,69.327,9.014ZM79.988,63.4h-38.9l13.14-13.14H85.963A92.1,92.1,0,0,1,79.988,63.4ZM50.075,14.37V46.1L36.934,59.241v-38.9A92.106,92.106,0,0,1,50.075,14.37ZM13.75,53.658a32.708,32.708,0,0,1,9.644-23.281,56.449,56.449,0,0,1,7.661-6.365l0,41.107-9.648,9.649A32.673,32.673,0,0,1,13.75,53.658ZM69.956,76.94a32.929,32.929,0,0,1-44.392,1.985l9.647-9.647H76.321A56.461,56.461,0,0,1,69.956,76.94Zm0,0" transform="translate(1212 490)"/>
    <text id="my_impact" data-name="my impact" class="cls-2" transform="translate(1332 556)"><tspan x="0" y="0">my impact</tspan></text>
  </g>
</svg>
